# xmcd
#
# Track frame offsets:
#	150
#	17110
#	28457
#	38340
#	54075
#	70782
#	83377
#	96857
#	107270
#	119142
#	140110
#	153292
#	166627
#	178925
#	191312
#	205407
#	222542
#	237840
#	252457
#	265710
#
# Disc length: 3740 seconds
#
# Revision: 0
# Processed by: cddbd v1.5.2PL0 Copyright (c) Steve Scherf et al.
# Submitted via: audiograbber 1.83.01
#
DISCID=0f0e9a14
DTITLE=Reader's Digest Country - An All-Star Treasury - Dsk 4
DYEAR=2007
DGENRE=Country
TTITLE0=Ray Price - For The Good Times
TTITLE1=Ray Price - Crazy Arms
TTITLE2=Ray Price - Make The World Go Away
TTITLE3=Ray Price - I Won't Mention It Again
TTITLE4=Ray Price - You're The Best Thing That Ever Happened To Me
TTITLE5=Glen Campbell - By The Time I Get To Phoenix
TTITLE6=Glen Campbell - Rhinestone Cowboy
TTITLE7=Glen Campbell - Time In A Bottle
TTITLE8=Glen Campbell - You Don't Have To Say You Love Me
TTITLE9=Glen Campbell - Bridge Over Troubled Water
TTITLE10=Lynn Anderson - Rose Garden
TTITLE11=Lynn Anderson - Top Of The World
TTITLE12=Lynn Anderson - How Can I Unlove You
TTITLE13=Lynn Anderson - Listen To A Country Song
TTITLE14=Lynn Anderson - Cry
TTITLE15=Don Williams - I Believe In You
TTITLE16=Don Williams - Till The Rivers All Run Dry
TTITLE17=Don Williams - Lay Down Beside Me
TTITLE18=Don Williams - I've Got A Winner In You
TTITLE19=Don Williams - Back In My Younger Days
EXTD=
EXTT0=
EXTT1=
EXTT2=
EXTT3=
EXTT4=
EXTT5=
EXTT6=
EXTT7=
EXTT8=
EXTT9=
EXTT10=
EXTT11=
EXTT12=
EXTT13=
EXTT14=
EXTT15=
EXTT16=
EXTT17=
EXTT18=
EXTT19=
PLAYORDER=
